<svg width="120" height="28" viewBox="0 0 120 28" fill="none" xmlns="http://www.w3.org/2000/svg">
<path d="M0.451705 0.818181H6.65199L10.7557 12.0938H11.0369L18.848 0.818181H25.0483L12.6989 17.7443L11.152 27H5.65483L7.2017 17.7443L0.451705 0.818181ZM48.3249 14.267C47.8477 17.0625 46.9229 19.4361 45.5508 21.3878C44.1871 23.3395 42.521 24.8224 40.5522 25.8366C38.592 26.8509 36.4783 27.358 34.2113 27.358C31.8335 27.358 29.7837 26.8168 28.0621 25.7344C26.3491 24.652 25.109 23.0881 24.342 21.0426C23.5749 18.9886 23.43 16.5128 23.9073 13.6151C24.3675 10.8111 25.2837 8.43324 26.6559 6.48153C28.0281 4.52131 29.7028 3.02983 31.68 2.0071C33.6573 0.975851 35.7837 0.460226 38.0593 0.460226C40.4201 0.460226 42.457 1.00568 44.1701 2.09659C45.8917 3.1875 47.1317 4.7642 47.8903 6.8267C48.6573 8.88068 48.8022 11.3608 48.3249 14.267ZM42.815 13.6151C43.1133 11.8168 43.1005 10.3082 42.7766 9.08949C42.4613 7.86222 41.8817 6.93324 41.038 6.30256C40.1942 5.67188 39.1289 5.35653 37.842 5.35653C36.4442 5.35653 35.1616 5.70597 33.994 6.40483C32.8349 7.10369 31.8548 8.1179 31.0536 9.44744C30.261 10.7685 29.7113 12.375 29.4045 14.267C29.0977 16.0739 29.1062 17.5824 29.43 18.7926C29.7624 20.0028 30.3548 20.919 31.207 21.5412C32.0678 22.1548 33.1374 22.4616 34.4158 22.4616C35.805 22.4616 37.0749 22.1207 38.2255 21.4389C39.3846 20.7486 40.3604 19.7472 41.1531 18.4347C41.9457 17.1136 42.4996 15.5071 42.815 13.6151ZM50.3033 27L54.6499 0.818181H65.1328C67.0589 0.818181 68.6186 1.10369 69.8118 1.67472C71.0135 2.24574 71.853 3.03835 72.3303 4.05256C72.8075 5.05824 72.9354 6.21733 72.7138 7.52983C72.5348 8.55256 72.1726 9.44744 71.6271 10.2145C71.0902 10.9815 70.4254 11.6122 69.6328 12.1065C68.8402 12.6009 67.9794 12.9503 67.0504 13.1548L66.9993 13.4105C67.9879 13.4531 68.8786 13.7344 69.6712 14.2543C70.4638 14.7656 71.0561 15.4901 71.4482 16.4276C71.8402 17.3651 71.9297 18.4773 71.7166 19.7642C71.4865 21.1534 70.9368 22.3935 70.0675 23.4844C69.1982 24.5668 68.0391 25.4233 66.5902 26.054C65.1499 26.6847 63.4496 27 61.4893 27H50.3033ZM56.6058 22.4744H61.1186C62.6527 22.4744 63.8246 22.1761 64.6342 21.5795C65.4439 20.983 65.9297 20.1946 66.0916 19.2145C66.2024 18.4901 66.13 17.8509 65.8743 17.2969C65.6271 16.7429 65.2053 16.3082 64.6087 15.9929C64.0206 15.6776 63.2749 15.5199 62.3714 15.5199H57.7436L56.6058 22.4744ZM58.3828 11.7741H62.4865C63.2365 11.7741 63.9311 11.642 64.5703 11.3778C65.218 11.1051 65.7507 10.7216 66.1683 10.2273C66.5945 9.72443 66.8629 9.1321 66.9737 8.45028C67.1271 7.49574 66.9141 6.73295 66.3345 6.16193C65.7635 5.58239 64.8686 5.29261 63.6499 5.29261H59.4567L58.3828 11.7741ZM100.286 14.267C99.8086 17.0625 98.8839 19.4361 97.5117 21.3878C96.1481 23.3395 94.4819 24.8224 92.5131 25.8366C90.5529 26.8509 88.4393 27.358 86.1722 27.358C83.7944 27.358 81.7447 26.8168 80.0231 25.7344C78.31 24.652 77.07 23.0881 76.3029 21.0426C75.5359 18.9886 75.391 16.5128 75.8683 13.6151C76.3285 10.8111 77.2447 8.43324 78.6168 6.48153C79.989 4.52131 81.6637 3.02983 83.641 2.0071C85.6183 0.975851 87.7447 0.460226 90.0202 0.460226C92.381 0.460226 94.418 1.00568 96.131 2.09659C97.8526 3.1875 99.0927 4.7642 99.8512 6.8267C100.618 8.88068 100.763 11.3608 100.286 14.267ZM94.7759 13.6151C95.0742 11.8168 95.0614 10.3082 94.7376 9.08949C94.4222 7.86222 93.8427 6.93324 92.9989 6.30256C92.1552 5.67188 91.0898 5.35653 89.8029 5.35653C88.4052 5.35653 87.1225 5.70597 85.9549 6.40483C84.7958 7.10369 83.8157 8.1179 83.0146 9.44744C82.2219 10.7685 81.6722 12.375 81.3654 14.267C81.0586 16.0739 81.0671 17.5824 81.391 18.7926C81.7234 20.0028 82.3157 20.919 83.168 21.5412C84.0288 22.1548 85.0984 22.4616 86.3768 22.4616C87.766 22.4616 89.0359 22.1207 90.1864 21.4389C91.3455 20.7486 92.3214 19.7472 93.114 18.4347C93.9066 17.1136 94.4606 15.5071 94.7759 13.6151ZM102.264 27L106.611 0.818181H112.146L108.567 22.4361H119.791L119.024 27H102.264Z" fill="#0039CB"/>
</svg>
